<svg xmlns="http://www.w3.org/2000/svg" xmlns:xlink="http://www.w3.org/1999/xlink" width="2000" zoomAndPan="magnify" viewBox="0 0 1500 1499.999933" height="2000" preserveAspectRatio="xMidYMid meet" version="1.0"><defs><clipPath id="a322e0929a"><path d="M 266.429688 248.382812 L 1265.429688 248.382812 L 1265.429688 691.632812 L 266.429688 691.632812 Z M 266.429688 248.382812 " clip-rule="nonzero"/></clipPath><clipPath id="8b67f20fc6"><path d="M 302 833 L 386 833 L 386 992 L 302 992 Z M 302 833 " clip-rule="nonzero"/></clipPath><clipPath id="457de16fa2"><path d="M 234.726562 823.710938 L 505.796875 594.871094 L 734.636719 865.941406 L 463.566406 1094.78125 Z M 234.726562 823.710938 " clip-rule="nonzero"/></clipPath><clipPath id="c42823fdad"><path d="M 234.726562 823.710938 L 505.796875 594.871094 L 734.636719 865.941406 L 463.566406 1094.78125 Z M 234.726562 823.710938 " clip-rule="nonzero"/></clipPath><clipPath id="30b33802ab"><path d="M 388 899 L 554 899 L 554 1012 L 388 1012 Z M 388 899 " clip-rule="nonzero"/></clipPath><clipPath id="031b4a7cd5"><path d="M 234.726562 823.710938 L 505.796875 594.871094 L 734.636719 865.941406 L 463.566406 1094.78125 Z M 234.726562 823.710938 " clip-rule="nonzero"/></clipPath><clipPath id="89bb58dac9"><path d="M 234.726562 823.710938 L 505.796875 594.871094 L 734.636719 865.941406 L 463.566406 1094.78125 Z M 234.726562 823.710938 " clip-rule="nonzero"/></clipPath><clipPath id="aaafc50aab"><path d="M 305 685 L 403 685 L 403 877 L 305 877 Z M 305 685 " clip-rule="nonzero"/></clipPath><clipPath id="9809fb455d"><path d="M 234.726562 823.710938 L 505.796875 594.871094 L 734.636719 865.941406 L 463.566406 1094.78125 Z M 234.726562 823.710938 " clip-rule="nonzero"/></clipPath><clipPath id="6e6ed5215e"><path d="M 234.726562 823.710938 L 505.796875 594.871094 L 734.636719 865.941406 L 463.566406 1094.78125 Z M 234.726562 823.710938 " clip-rule="nonzero"/></clipPath><clipPath id="336b6fa0e9"><path d="M 404 811 L 571 811 L 571 995 L 404 995 Z M 404 811 " clip-rule="nonzero"/></clipPath><clipPath id="c92ea85d1e"><path d="M 234.726562 823.710938 L 505.796875 594.871094 L 734.636719 865.941406 L 463.566406 1094.78125 Z M 234.726562 823.710938 " clip-rule="nonzero"/></clipPath><clipPath id="8742d98726"><path d="M 234.726562 823.710938 L 505.796875 594.871094 L 734.636719 865.941406 L 463.566406 1094.78125 Z M 234.726562 823.710938 " clip-rule="nonzero"/></clipPath><clipPath id="5839aa1c3a"><path d="M 399 695 L 565 695 L 565 879 L 399 879 Z M 399 695 " clip-rule="nonzero"/></clipPath><clipPath id="8d6c54bd4b"><path d="M 234.726562 823.710938 L 505.796875 594.871094 L 734.636719 865.941406 L 463.566406 1094.78125 Z M 234.726562 823.710938 " clip-rule="nonzero"/></clipPath><clipPath id="16d1b22436"><path d="M 234.726562 823.710938 L 505.796875 594.871094 L 734.636719 865.941406 L 463.566406 1094.78125 Z M 234.726562 823.710938 " clip-rule="nonzero"/></clipPath><clipPath id="17022a6885"><path d="M 566 812 L 664 812 L 664 1004 L 566 1004 Z M 566 812 " clip-rule="nonzero"/></clipPath><clipPath id="bc237fdb3a"><path d="M 234.726562 823.710938 L 505.796875 594.871094 L 734.636719 865.941406 L 463.566406 1094.78125 Z M 234.726562 823.710938 " clip-rule="nonzero"/></clipPath><clipPath id="f4118b80f6"><path d="M 234.726562 823.710938 L 505.796875 594.871094 L 734.636719 865.941406 L 463.566406 1094.78125 Z M 234.726562 823.710938 " clip-rule="nonzero"/></clipPath><clipPath id="64fe78d7d9"><path d="M 415 678 L 581 678 L 581 790 L 415 790 Z M 415 678 " clip-rule="nonzero"/></clipPath><clipPath id="f14a43b106"><path d="M 234.726562 823.710938 L 505.796875 594.871094 L 734.636719 865.941406 L 463.566406 1094.78125 Z M 234.726562 823.710938 " clip-rule="nonzero"/></clipPath><clipPath id="dedaa73439"><path d="M 234.726562 823.710938 L 505.796875 594.871094 L 734.636719 865.941406 L 463.566406 1094.78125 Z M 234.726562 823.710938 " clip-rule="nonzero"/></clipPath><clipPath id="b4449957d6"><path d="M 584 697 L 667 697 L 667 856 L 584 856 Z M 584 697 " clip-rule="nonzero"/></clipPath><clipPath id="5bc5c56f7f"><path d="M 234.726562 823.710938 L 505.796875 594.871094 L 734.636719 865.941406 L 463.566406 1094.78125 Z M 234.726562 823.710938 " clip-rule="nonzero"/></clipPath><clipPath id="717088c8e5"><path d="M 234.726562 823.710938 L 505.796875 594.871094 L 734.636719 865.941406 L 463.566406 1094.78125 Z M 234.726562 823.710938 " clip-rule="nonzero"/></clipPath><clipPath id="af6457ee7b"><path d="M 702.082031 248.382812 L 1265.332031 248.382812 L 1265.332031 1350 L 702.082031 1350 Z M 702.082031 248.382812 " clip-rule="nonzero"/></clipPath></defs><g clip-path="url(#a322e0929a)"><path fill="var(--accent)" d="M 576.046875 746.425781 C 529.273438 743.460938 490.710938 782.023438 493.667969 828.800781 C 496.109375 867.371094 527.40625 898.667969 565.976562 901.109375 C 612.75 904.066406 651.3125 865.507812 648.351562 818.726562 C 645.917969 780.164062 614.621094 748.859375 576.046875 746.425781 Z M 1265.253906 1302.769531 L 1258.558594 1349.617188 C 1236.8125 1349.617188 1218.40625 1347.945312 1196.660156 1346.273438 C 1074.523438 1337.902344 1009.277344 1306.117188 935.660156 1202.390625 C 873.761719 1117.0625 813.523438 1011.660156 759.992188 926.34375 C 744.5 901.550781 731.503906 886.097656 713.554688 876.644531 C 702.75 870.953125 699.714844 856.976562 707.382812 847.464844 C 711.007812 842.976562 714.5 838.414062 717.851562 833.789062 C 733.757812 811.882812 755.710938 795.125 780.644531 784.550781 C 797.253906 777.507812 811.933594 768.542969 825.242188 757.359375 C 890.484375 708.835938 917.253906 641.914062 917.253906 551.574219 C 917.253906 372.5625 798.472656 307.300781 669.640625 307.300781 C 621.125 307.300781 303.054688 306.429688 266.441406 305.363281 L 266.441406 248.753906 L 693.070312 248.753906 C 815.203125 248.753906 897.179688 263.804688 960.753906 305.628906 C 1029.347656 349.132812 1074.523438 424.421875 1074.523438 526.472656 C 1074.523438 670.355469 982.507812 760.707031 858.699219 814.25 C 888.8125 866.105469 960.753906 978.203125 1010.949219 1053.484375 C 1072.847656 1142.164062 1104.636719 1183.992188 1143.117188 1225.808594 C 1188.292969 1274.332031 1226.773438 1292.742188 1265.253906 1302.769531 " fill-opacity="1" fill-rule="nonzero"/></g><g clip-path="url(#8b67f20fc6)"><g clip-path="url(#457de16fa2)"><g clip-path="url(#c42823fdad)"><path fill="var(--accent)" d="M 302.449219 833.988281 L 376.65625 991.835938 L 385.128906 891.527344 Z M 302.449219 833.988281 " fill-opacity="1" fill-rule="nonzero"/></g></g></g><g clip-path="url(#30b33802ab)"><g clip-path="url(#031b4a7cd5)"><g clip-path="url(#89bb58dac9)"><path fill="var(--accent)" d="M 388.941406 997.519531 L 553.285156 1011.402344 L 553.511719 1008.71875 L 397.1875 899.898438 Z M 388.941406 997.519531 " fill-opacity="1" fill-rule="nonzero"/></g></g></g><g clip-path="url(#aaafc50aab)"><g clip-path="url(#9809fb455d)"><g clip-path="url(#6e6ed5215e)"><path fill="var(--accent)" d="M 402.394531 687.152344 L 400.183594 685.609375 L 305.945312 820.976562 L 386.363281 876.929688 Z M 402.394531 687.152344 " fill-opacity="1" fill-rule="nonzero"/></g></g></g><g clip-path="url(#336b6fa0e9)"><g clip-path="url(#c92ea85d1e)"><g clip-path="url(#8742d98726)"><path fill="var(--accent)" d="M 404.46875 889.507812 L 554.792969 994.078125 L 570.203125 811.640625 Z M 404.46875 889.507812 " fill-opacity="1" fill-rule="nonzero"/></g></g></g><g clip-path="url(#5839aa1c3a)"><g clip-path="url(#8d6c54bd4b)"><g clip-path="url(#16d1b22436)"><path fill="var(--accent)" d="M 564.777344 800.089844 L 414.453125 695.519531 L 399.03125 878.042969 Z M 564.777344 800.089844 " fill-opacity="1" fill-rule="nonzero"/></g></g></g><g clip-path="url(#17022a6885)"><g clip-path="url(#bc237fdb3a)"><g clip-path="url(#f4118b80f6)"><path fill="var(--accent)" d="M 566.847656 1002.445312 L 569.058594 1003.984375 L 663.210938 868.613281 L 582.832031 812.707031 Z M 566.847656 1002.445312 " fill-opacity="1" fill-rule="nonzero"/></g></g></g><g clip-path="url(#64fe78d7d9)"><g clip-path="url(#f14a43b106)"><g clip-path="url(#dedaa73439)"><path fill="var(--accent)" d="M 580.347656 692.125 L 415.910156 678.234375 L 415.683594 680.921875 L 572.058594 789.699219 Z M 580.347656 692.125 " fill-opacity="1" fill-rule="nonzero"/></g></g></g><g clip-path="url(#b4449957d6)"><g clip-path="url(#5bc5c56f7f)"><g clip-path="url(#717088c8e5)"><path fill="var(--accent)" d="M 584.113281 798.066406 L 666.710938 855.511719 L 592.539062 697.804688 Z M 584.113281 798.066406 " fill-opacity="1" fill-rule="nonzero"/></g></g></g><g clip-path="url(#af6457ee7b)"><path fill="var(--accent)" d="M 576.046875 746.425781 C 529.273438 743.460938 490.710938 782.023438 493.667969 828.800781 C 496.109375 867.371094 527.40625 898.667969 565.976562 901.109375 C 612.75 904.066406 651.3125 865.507812 648.351562 818.726562 C 645.917969 780.164062 614.621094 748.859375 576.046875 746.425781 Z M 1265.253906 1302.769531 L 1258.558594 1349.617188 C 1236.8125 1349.617188 1218.40625 1347.945312 1196.660156 1346.273438 C 1074.523438 1337.902344 1009.277344 1306.117188 935.660156 1202.390625 C 873.761719 1117.0625 813.523438 1011.660156 759.992188 926.34375 C 744.496094 901.550781 731.503906 886.097656 713.554688 876.644531 C 702.75 870.953125 699.714844 856.976562 707.382812 847.464844 C 711.007812 842.976562 714.5 838.414062 717.851562 833.789062 C 733.757812 811.882812 755.710938 795.125 780.644531 784.550781 C 797.253906 777.507812 811.933594 768.542969 825.242188 757.359375 C 890.484375 708.835938 917.253906 641.914062 917.253906 551.574219 C 917.253906 372.5625 798.472656 307.300781 669.640625 307.300781 C 621.125 307.300781 303.054688 306.429688 266.441406 305.363281 L 266.441406 248.753906 L 693.070312 248.753906 C 815.199219 248.753906 897.179688 263.804688 960.753906 305.628906 C 1029.347656 349.132812 1074.523438 424.421875 1074.523438 526.472656 C 1074.523438 670.355469 982.507812 760.707031 858.699219 814.25 C 888.8125 866.105469 960.753906 978.203125 1010.949219 1053.484375 C 1072.847656 1142.164062 1104.636719 1183.992188 1143.117188 1225.808594 C 1188.292969 1274.332031 1226.773438 1292.742188 1265.253906 1302.769531 " fill-opacity="1" fill-rule="nonzero"/></g></svg>